<?xml version="1.0" encoding="UTF-8" standalone="no"?>
<!-- Created with Inkscape (http://www.inkscape.org/) -->

<svg
   width="120"
   height="120"
   viewBox="0 0 120 120"
   version="1.1"
   id="svg5"
   inkscape:version="1.1.2 (b8e25be833, 2022-02-05)"
   sodipodi:docname="Logo Trime version 1.svg"
   xmlns:inkscape="http://www.inkscape.org/namespaces/inkscape"
   xmlns:sodipodi="http://sodipodi.sourceforge.net/DTD/sodipodi-0.dtd"
   xmlns:xlink="http://www.w3.org/1999/xlink"
   xmlns="http://www.w3.org/2000/svg"
   xmlns:svg="http://www.w3.org/2000/svg">
  <sodipodi:namedview
     id="namedview7"
     pagecolor="#505050"
     bordercolor="#eeeeee"
     borderopacity="1"
     inkscape:pageshadow="0"
     inkscape:pageopacity="0"
     inkscape:pagecheckerboard="0"
     inkscape:document-units="px"
     showgrid="false"
     showguides="true"
     inkscape:guide-bbox="true"
     inkscape:snap-intersection-paths="false"
     inkscape:snap-object-midpoints="false"
     inkscape:snap-center="false"
     inkscape:snap-others="true"
     inkscape:object-paths="true"
     inkscape:zoom="11.313709"
     inkscape:cx="54.403028"
     inkscape:cy="50.513941"
     inkscape:window-width="1920"
     inkscape:window-height="1001"
     inkscape:window-x="-9"
     inkscape:window-y="-9"
     inkscape:window-maximized="1"
     inkscape:current-layer="layer1" />
  <defs
     id="defs2">
    <marker
       style="overflow:visible"
       id="Arrow2Lstart"
       refX="0.0"
       refY="0.0"
       orient="auto"
       inkscape:stockid="Arrow2Lstart"
       inkscape:isstock="true">
      <path
         transform="scale(1.1) translate(1,0)"
         d="M 8.7185878,4.0337352 L -2.2072895,0.016013256 L 8.7185884,-4.0017078 C 6.9730900,-1.6296469 6.9831476,1.6157441 8.7185878,4.0337352 z "
         style="stroke:context-stroke;fill-rule:evenodd;fill:context-stroke;stroke-width:0.62500000;stroke-linejoin:round"
         id="path63753" />
    </marker>
    <linearGradient
       id="linearGradient61329"
       inkscape:swatch="solid">
      <stop
         style="stop-color:#000000;stop-opacity:0.41152263;"
         offset="0"
         id="stop61327" />
    </linearGradient>
    <linearGradient
       id="linearGradient61323"
       inkscape:swatch="solid">
      <stop
         style="stop-color:#502f00;stop-opacity:1;"
         offset="0"
         id="stop61321" />
    </linearGradient>
    <linearGradient
       id="linearGradient59967"
       inkscape:swatch="solid">
      <stop
         style="stop-color:#502f00;stop-opacity:1;"
         offset="0"
         id="stop59965" />
    </linearGradient>
    <linearGradient
       id="linearGradient59861"
       inkscape:swatch="solid">
      <stop
         style="stop-color:#000000;stop-opacity:1;"
         offset="0"
         id="stop59859" />
    </linearGradient>
    <linearGradient
       id="linearGradient50064"
       inkscape:swatch="solid">
      <stop
         style="stop-color:#000000;stop-opacity:1;"
         offset="0"
         id="stop50062" />
    </linearGradient>
    <linearGradient
       id="linearGradient48932"
       inkscape:swatch="solid">
      <stop
         style="stop-color:#000000;stop-opacity:1;"
         offset="0"
         id="stop48930" />
    </linearGradient>
    <linearGradient
       id="linearGradient48926"
       inkscape:swatch="solid">
      <stop
         style="stop-color:#000000;stop-opacity:1;"
         offset="0"
         id="stop48924" />
    </linearGradient>
    <linearGradient
       id="linearGradient48082"
       inkscape:swatch="solid">
      <stop
         style="stop-color:#000000;stop-opacity:1;"
         offset="0"
         id="stop48080" />
    </linearGradient>
    <linearGradient
       id="linearGradient47924"
       inkscape:swatch="solid">
      <stop
         style="stop-color:#000000;stop-opacity:1;"
         offset="0"
         id="stop47922" />
    </linearGradient>
    <linearGradient
       id="linearGradient38069"
       inkscape:swatch="solid">
      <stop
         style="stop-color:#502f09;stop-opacity:1;"
         offset="0"
         id="stop38067" />
    </linearGradient>
    <linearGradient
       id="linearGradient38006"
       inkscape:swatch="gradient">
      <stop
         style="stop-color:#502f09;stop-opacity:1;"
         offset="0"
         id="stop38002" />
      <stop
         style="stop-color:#502f09;stop-opacity:0;"
         offset="1"
         id="stop38004" />
    </linearGradient>
    <linearGradient
       id="linearGradient36516"
       inkscape:swatch="gradient">
      <stop
         style="stop-color:#502f09;stop-opacity:1;"
         offset="0"
         id="stop36512" />
      <stop
         style="stop-color:#502f09;stop-opacity:0;"
         offset="1"
         id="stop36514" />
    </linearGradient>
    <linearGradient
       id="linearGradient12293"
       inkscape:swatch="solid">
      <stop
         style="stop-color:#504109;stop-opacity:1;"
         offset="0"
         id="stop12291" />
    </linearGradient>
    <linearGradient
       id="linearGradient9420"
       inkscape:swatch="gradient">
      <stop
         style="stop-color:#ffe88d;stop-opacity:1;"
         offset="0"
         id="stop10180" />
      <stop
         style="stop-color:#ffe88d;stop-opacity:1"
         offset="1"
         id="stop10182" />
    </linearGradient>
    <linearGradient
       id="linearGradient10068"
       inkscape:swatch="gradient">
      <stop
         style="stop-color:#ffe88d;stop-opacity:1;"
         offset="0"
         id="stop10064" />
      <stop
         style="stop-color:#ffe88d;stop-opacity:0;"
         offset="1"
         id="stop10066" />
    </linearGradient>
    <linearGradient
       id="linearGradient9420-6"
       inkscape:swatch="gradient">
      <stop
         style="stop-color:#502f00;stop-opacity:1;"
         offset="0"
         id="stop9416" />
      <stop
         style="stop-color:#ffe88d;stop-opacity:1"
         offset="1"
         id="stop9418" />
    </linearGradient>
    <linearGradient
       id="linearGradient8882"
       inkscape:swatch="solid">
      <stop
         style="stop-color:#502f09;stop-opacity:1;"
         offset="0"
         id="stop8880" />
    </linearGradient>
    <linearGradient
       id="linearGradient44546"
       inkscape:swatch="solid">
      <stop
         style="stop-color:#000f2b;stop-opacity:1;"
         offset="0"
         id="stop44544" />
    </linearGradient>
    <linearGradient
       id="linearGradient44501"
       inkscape:swatch="solid">
      <stop
         style="stop-color:#000000;stop-opacity:1;"
         offset="0"
         id="stop44499" />
    </linearGradient>
    <linearGradient
       id="linearGradient40037-0-9"
       inkscape:swatch="gradient">
      <stop
         style="stop-color:#e9860f;stop-opacity:0.10288066;"
         offset="0"
         id="stop42067" />
      <stop
         style="stop-color:#ffe88d;stop-opacity:1"
         offset="1"
         id="stop42069" />
    </linearGradient>
    <linearGradient
       id="linearGradient40037-0"
       inkscape:swatch="gradient">
      <stop
         style="stop-color:#ffe88d;stop-opacity:1;"
         offset="0"
         id="stop40926" />
      <stop
         style="stop-color:#ffe88d;stop-opacity:0;"
         offset="1"
         id="stop40928" />
    </linearGradient>
    <linearGradient
       id="linearGradient40037-0-9-7"
       inkscape:swatch="gradient">
      <stop
         style="stop-color:#ffe8a9;stop-opacity:1;"
         offset="0"
         id="stop40033" />
      <stop
         style="stop-color:#ffe88d;stop-opacity:1"
         offset="1"
         id="stop40035" />
    </linearGradient>
    <linearGradient
       id="linearGradient39417"
       inkscape:swatch="solid">
      <stop
         style="stop-color:#ffe88d;stop-opacity:1;"
         offset="0"
         id="stop39415" />
    </linearGradient>
    <linearGradient
       inkscape:collect="always"
       xlink:href="#linearGradient9420-6"
       id="linearGradient36520"
       gradientUnits="userSpaceOnUse"
       x1="72.874359"
       y1="79.558159"
       x2="10.517944"
       y2="17.31233"
       gradientTransform="matrix(1,0,0,1.0500479,0,-3.9354231)" />
    <linearGradient
       inkscape:collect="always"
       xlink:href="#linearGradient44546"
       id="linearGradient38012"
       x1="45.845284"
       y1="78.630074"
       x2="27.245863"
       y2="21.954973"
       gradientUnits="userSpaceOnUse"
       gradientTransform="matrix(1,0,0,1.0328542,-0.024506,-2.4657318)" />
    <linearGradient
       inkscape:collect="always"
       xlink:href="#linearGradient9420-6"
       id="linearGradient38955"
       gradientUnits="userSpaceOnUse"
       x1="23.246136"
       y1="62.137009"
       x2="61.024109"
       y2="55.133831"
       gradientTransform="matrix(1,0,0,1.0328542,0,-2.5438224)" />
    <linearGradient
       inkscape:collect="always"
       xlink:href="#linearGradient9420-6"
       id="linearGradient43370"
       gradientUnits="userSpaceOnUse"
       gradientTransform="matrix(1,0,0,1.0500479,197.02489,12.634432)"
       x1="72.874359"
       y1="79.558159"
       x2="10.517944"
       y2="17.31233" />
    <linearGradient
       inkscape:collect="always"
       xlink:href="#linearGradient9420-6"
       id="linearGradient43372"
       gradientUnits="userSpaceOnUse"
       gradientTransform="matrix(1,0,0,1.0328542,197.24346,13.881481)"
       x1="45.845284"
       y1="78.630074"
       x2="27.245863"
       y2="21.954973" />
    <linearGradient
       inkscape:collect="always"
       xlink:href="#linearGradient9420-6"
       id="linearGradient43374"
       gradientUnits="userSpaceOnUse"
       gradientTransform="matrix(1,0,0,1.0328542,197.26797,13.803391)"
       x1="23.246136"
       y1="62.137009"
       x2="61.024109"
       y2="55.133831" />
    <linearGradient
       inkscape:collect="always"
       xlink:href="#linearGradient9420-6"
       id="linearGradient43859"
       gradientUnits="userSpaceOnUse"
       gradientTransform="matrix(1,0,0,1.0500479,227.89297,43.28679)"
       x1="72.874359"
       y1="79.558159"
       x2="10.517944"
       y2="17.31233" />
    <linearGradient
       inkscape:collect="always"
       xlink:href="#linearGradient9420-6"
       id="linearGradient43861"
       gradientUnits="userSpaceOnUse"
       gradientTransform="matrix(1,0,0,1.0328542,197.24346,13.881481)"
       x1="45.845284"
       y1="78.630074"
       x2="27.245863"
       y2="21.954973" />
    <linearGradient
       inkscape:collect="always"
       xlink:href="#linearGradient9420-6"
       id="linearGradient43863"
       gradientUnits="userSpaceOnUse"
       gradientTransform="matrix(1,0,0,1.0328542,197.26797,13.803391)"
       x1="23.246136"
       y1="62.137009"
       x2="61.024109"
       y2="55.133831" />
    <linearGradient
       inkscape:collect="always"
       xlink:href="#linearGradient9420-6"
       id="linearGradient59969"
       x1="216.9987"
       y1="70.747948"
       x2="252.16881"
       y2="70.747948"
       gradientUnits="userSpaceOnUse"
       gradientTransform="matrix(1,0,0,0.99999845,-46.122105,11.320743)" />
    <linearGradient
       inkscape:collect="always"
       xlink:href="#linearGradient9420-6"
       id="linearGradient61236"
       gradientUnits="userSpaceOnUse"
       gradientTransform="matrix(1,0,0,1.0328542,135.12091,26.26567)"
       x1="45.845284"
       y1="78.630074"
       x2="27.245863"
       y2="21.954973" />
    <linearGradient
       inkscape:collect="always"
       xlink:href="#linearGradient9420-6"
       id="linearGradient61238"
       gradientUnits="userSpaceOnUse"
       gradientTransform="matrix(1,0,0,1.0328542,135.14542,26.18758)"
       x1="23.246136"
       y1="62.137009"
       x2="61.024109"
       y2="55.133831" />
    <linearGradient
       inkscape:collect="always"
       xlink:href="#linearGradient61323"
       id="linearGradient61325"
       x1="73.458223"
       y1="50.625"
       x2="119.54173"
       y2="50.625"
       gradientUnits="userSpaceOnUse" />
    <linearGradient
       inkscape:collect="always"
       xlink:href="#linearGradient61329"
       id="linearGradient61331"
       x1="73.458223"
       y1="50.625"
       x2="119.54173"
       y2="50.625"
       gradientUnits="userSpaceOnUse" />
    <linearGradient
       inkscape:collect="always"
       xlink:href="#linearGradient61329"
       id="linearGradient61333"
       gradientUnits="userSpaceOnUse"
       x1="73.458223"
       y1="50.625"
       x2="119.54173"
       y2="50.625" />
    <linearGradient
       inkscape:collect="always"
       xlink:href="#linearGradient61323"
       id="linearGradient61335"
       gradientUnits="userSpaceOnUse"
       x1="73.458223"
       y1="50.625"
       x2="119.54173"
       y2="50.625" />
    <linearGradient
       inkscape:collect="always"
       xlink:href="#linearGradient61329"
       id="linearGradient61337"
       gradientUnits="userSpaceOnUse"
       x1="73.458223"
       y1="50.625"
       x2="119.54173"
       y2="50.625" />
    <linearGradient
       inkscape:collect="always"
       xlink:href="#linearGradient61323"
       id="linearGradient61339"
       gradientUnits="userSpaceOnUse"
       x1="73.458223"
       y1="50.625"
       x2="119.54173"
       y2="50.625" />
  </defs>
  <g
     inkscape:label="Calque 1"
     inkscape:groupmode="layer"
     id="layer1">
    <g
       id="g47063"
       transform="translate(-36.02277,5.2071264)"
       style="opacity:1;fill:url(#linearGradient61331);fill-opacity:1;fill-rule:nonzero;stroke:url(#linearGradient61325);stroke-linecap:butt;paint-order:markers stroke fill">
      <path
         style="fill:url(#linearGradient61333);fill-opacity:1;fill-rule:nonzero;stroke:url(#linearGradient61335);stroke-width:0.7;stroke-linecap:butt;stroke-miterlimit:4;stroke-dasharray:none;stroke-opacity:0;paint-order:markers stroke fill"
         d="M 91.83047,77.451789 C 89.689718,77.285261 87.689596,76.978615 87.486728,76.785834 87.103098,76.421278 86.006319,74.52684 85.38317,73.152412 83.493662,68.984884 83.415645,64.129422 85.167201,59.711424 l 0.382204,-0.964044 0.276292,0.510765 c 1.360104,2.514345 2.99414,4.191674 4.558711,4.67949 0.913611,0.284854 1.438819,0.26258 2.26951,-0.09626 1.312722,-0.567055 2.478949,-1.868276 3.458537,-3.858876 0.257409,-0.523073 0.50166,-0.951296 0.542781,-0.951606 0.04112,-2.63e-4 0.181745,0.249948 0.3125,0.556129 0.130754,0.306181 0.506686,0.990097 0.835408,1.519814 2.319276,3.737407 5.057056,3.997162 7.930956,0.752476 1.43162,-1.616324 2.50888,-3.763223 3.06603,-6.110382 0.37259,-1.569647 0.36769,-4.228845 -0.0105,-5.687133 -0.53475,-2.062058 -1.44221,-3.80702 -2.95918,-5.69021 -2.53437,-3.146222 -3.47039,-4.672385 -4.43151,-7.225491 -1.27007,-3.373792 -1.936012,-8.135595 -1.67538,-11.979802 l 0.111237,-1.6407 0.229393,0.721908 c 0.42107,1.325135 1.79216,4.117003 2.80401,5.709635 1.93776,3.049995 4.4818,6.066649 7.48644,8.877231 4.56274,4.268034 7.60245,9.707468 8.55532,15.309349 0.37208,2.187476 0.37131,5.352505 -0.002,7.214271 -0.34933,1.743289 -0.74783,2.896495 -1.65976,4.803009 -2.65238,5.545216 -5.64195,9.014 -8.91492,10.343945 -2.22494,0.904087 -2.56707,0.938729 -9.56558,0.968558 -3.471875,0.01479 -6.59375,0.005 -6.9375,-0.02172 z"
         id="path13438-1" />
      <path
         style="fill:url(#linearGradient61337);fill-opacity:1;fill-rule:nonzero;stroke:url(#linearGradient61339);stroke-width:0.711407;stroke-linecap:butt;stroke-miterlimit:4;stroke-dasharray:none;stroke-opacity:0;paint-order:markers stroke fill"
         d="m 83.240726,75.961222 c -1.632228,-0.938656 -3.183189,-2.603395 -5.035369,-5.404763 -2.150025,-3.251852 -3.471011,-6.153121 -4.038738,-8.870247 -0.588708,-2.817539 -0.430855,-6.350813 0.423703,-9.48388 1.19099,-4.36653 4.064367,-8.939175 7.704875,-12.261411 1.414538,-1.290873 4.01599,-4.000525 5.183667,-5.399266 2.655493,-3.180976 4.630422,-6.562148 5.621416,-9.624133 l 0.390086,-1.20529 0.112528,1.209293 c 0.14243,1.530635 0.06652,6.014224 -0.124234,7.337824 -0.554875,3.850151 -2.018909,7.678758 -3.752778,9.813919 -0.224257,0.27616 -0.946268,1.11833 -1.604471,1.871492 -2.060651,2.357943 -3.189486,4.059379 -4.512377,6.801275 -1.482062,3.071807 -2.401706,6.268855 -2.783621,9.676982 -0.221426,1.975954 -0.14251,5.210388 0.172606,7.0744 0.457284,2.70498 1.069818,4.710537 2.228674,7.297125 0.358204,0.799517 0.640159,1.465154 0.626566,1.479193 -0.01359,0.01404 -0.289232,-0.12659 -0.612533,-0.312513 z"
         id="path37677-8" />
    </g>
    <path
       style="fill:none;stroke:#000000;stroke-width:0.4;stroke-linecap:butt;stroke-linejoin:miter;stroke-miterlimit:4;stroke-dasharray:none;stroke-opacity:1"
       d="m 142.20962,-69.231813 c 0,0 0.10226,1.19751 1.25,3.79126"
       id="path18648-8-7" />
    <g
       id="g45239"
       transform="translate(10.831475,5.1228444)">
      <path
         style="fill:#000f2b;fill-opacity:1;stroke:url(#linearGradient36520);stroke-width:0.7;stroke-miterlimit:4;stroke-dasharray:none;stroke-opacity:1"
         d="M 43.8125,78.604576 C 41.671748,78.438048 39.671626,78.131402 39.468758,77.938621 39.085128,77.574065 37.988349,75.679627 37.3652,74.305199 35.475692,70.137671 35.397675,65.282209 37.149231,60.864211 l 0.382204,-0.964044 0.276292,0.510765 c 1.360104,2.514345 2.99414,4.191674 4.558711,4.67949 0.913611,0.284854 1.438819,0.26258 2.26951,-0.09626 1.312722,-0.567055 2.478949,-1.868276 3.458537,-3.858876 0.257409,-0.523073 0.50166,-0.951296 0.542781,-0.951606 0.04112,-2.63e-4 0.181745,0.249948 0.3125,0.556129 0.130754,0.306181 0.506686,0.990097 0.835408,1.519814 2.319278,3.737407 5.057056,3.997162 7.930955,0.752476 1.431617,-1.616324 2.508876,-3.763223 3.06603,-6.110382 0.372593,-1.569647 0.367691,-4.228845 -0.01049,-5.687133 -0.53475,-2.062058 -1.442211,-3.80702 -2.959176,-5.69021 C 55.27812,42.378152 54.342098,40.851989 53.380975,38.298883 52.110905,34.925091 51.444968,30.163288 51.7056,26.319081 l 0.111237,-1.6407 0.229392,0.721908 c 0.421072,1.325135 1.792165,4.117003 2.804013,5.709635 1.937759,3.049995 4.481795,6.066649 7.486442,8.877231 4.562733,4.268034 7.602447,9.707468 8.555311,15.309349 0.372084,2.187476 0.37132,5.352505 -0.0017,7.214271 -0.34932,1.743289 -0.747827,2.896495 -1.659751,4.803009 -2.652386,5.545216 -5.641956,9.014 -8.914926,10.343945 -2.224935,0.904087 -2.567071,0.938729 -9.565578,0.968558 -3.471875,0.01479 -6.59375,0.005 -6.9375,-0.02172 z"
         id="path13438" />
      <path
         style="fill:url(#linearGradient38012);fill-opacity:1;stroke:url(#linearGradient38955);stroke-width:0.711407;stroke-miterlimit:4;stroke-dasharray:none;stroke-opacity:1"
         d="m 35.222756,77.114009 c -1.632228,-0.938656 -3.183189,-2.603395 -5.035369,-5.404763 -2.150025,-3.251852 -3.471011,-6.153121 -4.038738,-8.870247 -0.588708,-2.817539 -0.430855,-6.350813 0.423703,-9.48388 1.19099,-4.36653 4.064367,-8.939175 7.704875,-12.261411 1.414538,-1.290873 4.01599,-4.000525 5.183667,-5.399266 2.655493,-3.180976 4.630422,-6.562148 5.621416,-9.624133 l 0.390086,-1.20529 0.112528,1.209293 c 0.14243,1.530635 0.06652,6.014224 -0.124234,7.337824 -0.554875,3.850151 -2.018909,7.678758 -3.752778,9.813919 -0.224257,0.27616 -0.946268,1.11833 -1.604471,1.871492 -2.060651,2.357943 -3.189486,4.059379 -4.512377,6.801275 -1.482062,3.071807 -2.401706,6.268855 -2.783621,9.676982 -0.221426,1.975954 -0.14251,5.210388 0.172606,7.0744 0.457284,2.70498 1.069818,4.710537 2.228674,7.297125 0.358204,0.799517 0.640159,1.465154 0.626566,1.479193 -0.01359,0.01404 -0.289232,-0.12659 -0.612533,-0.312513 z"
         id="path37677" />
    </g>
  </g>
  <g
     inkscape:label="Copie de Calque 1"
     inkscape:groupmode="layer"
     id="g43691">
    <path
       style="fill:none;stroke:#000000;stroke-width:0.4;stroke-linecap:butt;stroke-linejoin:miter;stroke-miterlimit:4;stroke-dasharray:none;stroke-opacity:1"
       d="m 142.20962,-69.231813 c 0,0 0.10226,1.19751 1.25,3.79126"
       id="path43679" />
    <path
       style="fill:#000f2b;fill-opacity:1;stroke:url(#linearGradient43859);stroke-width:0.7;stroke-miterlimit:4;stroke-dasharray:none;stroke-opacity:1"
       d="m 271.70547,125.82679 c -2.14075,-0.16653 -4.14087,-0.47317 -4.34374,-0.66596 -0.38363,-0.36455 -1.48041,-2.25899 -2.10356,-3.63342 -1.88951,-4.16753 -1.96753,-9.02299 -0.21597,-13.44099 l 0.3822,-0.96404 0.2763,0.51077 c 1.3601,2.51434 2.99414,4.19167 4.55871,4.67949 0.91361,0.28485 1.43882,0.26258 2.26951,-0.0963 1.31272,-0.56706 2.47895,-1.86828 3.45853,-3.85888 0.25741,-0.52307 0.50167,-0.9513 0.54279,-0.95161 0.0411,-2.6e-4 0.18174,0.24995 0.3125,0.55613 0.13075,0.30618 0.50668,0.9901 0.8354,1.51982 2.31928,3.7374 5.05706,3.99716 7.93096,0.75247 1.43162,-1.61632 2.50888,-3.76322 3.06603,-6.11038 0.37259,-1.56965 0.36769,-4.228845 -0.0105,-5.687133 -0.53475,-2.062058 -1.44221,-3.80702 -2.95918,-5.69021 -2.53437,-3.146222 -3.47039,-4.672385 -4.43152,-7.225491 -1.27007,-3.373792 -1.936,-8.135595 -1.67537,-11.979802 l 0.11124,-1.6407 0.22939,0.721908 c 0.42107,1.325135 1.79216,4.117003 2.80401,5.709635 1.93776,3.049995 4.4818,6.066649 7.48644,8.877231 4.56274,4.268034 7.60245,9.707468 8.55532,15.309352 0.37208,2.18747 0.37131,5.3525 -0.002,7.21427 -0.34933,1.74329 -0.74783,2.89649 -1.65976,4.80301 -2.65238,5.54521 -5.64195,9.014 -8.91492,10.34394 -2.22494,0.90409 -2.56707,0.93873 -9.56558,0.96856 -3.47188,0.0148 -6.59375,0.005 -6.9375,-0.0217 z"
       id="path13438-8" />
    <path
       style="fill:url(#linearGradient43861);fill-opacity:1;stroke:url(#linearGradient43863);stroke-width:0.711407;stroke-miterlimit:4;stroke-dasharray:none;stroke-opacity:1"
       d="m 232.49073,93.46122 c -1.63223,-0.93865 -3.18319,-2.603393 -5.03537,-5.404761 -2.15003,-3.251852 -3.47101,-6.153121 -4.03874,-8.870247 -0.58871,-2.817539 -0.43086,-6.350813 0.4237,-9.48388 1.19099,-4.36653 4.06437,-8.939175 7.70488,-12.261411 1.41453,-1.290873 4.01599,-4.000525 5.18366,-5.399266 2.6555,-3.180976 4.63043,-6.562148 5.62142,-9.624133 l 0.39009,-1.20529 0.11252,1.209293 c 0.14243,1.530635 0.0665,6.014224 -0.12423,7.337824 -0.55488,3.850151 -2.01891,7.678758 -3.75278,9.813919 -0.22426,0.27616 -0.94627,1.11833 -1.60447,1.871492 -2.06065,2.357943 -3.18949,4.059379 -4.51238,6.801275 -1.48206,3.071807 -2.4017,6.268855 -2.78362,9.676982 -0.22142,1.975954 -0.14251,5.210388 0.17261,7.0744 0.45728,2.70498 1.06982,4.710537 2.22867,7.297123 0.35821,0.79952 0.64016,1.46516 0.62657,1.47919 -0.0136,0.014 -0.28923,-0.12659 -0.61253,-0.31251 z"
       id="path37677-2" />
    <path
       style="fill:#000f2b;fill-opacity:1;stroke:url(#linearGradient43370);stroke-width:0.7;stroke-miterlimit:4;stroke-dasharray:none;stroke-opacity:1"
       d="m 240.83739,95.174432 c -2.14075,-0.16653 -4.14087,-0.47317 -4.34374,-0.66596 -0.38363,-0.36455 -1.48041,-2.25899 -2.10356,-3.63342 -1.88951,-4.16753 -1.96753,-9.02299 -0.21597,-13.44099 l 0.3822,-0.96404 0.2763,0.51077 c 1.3601,2.51434 2.99414,4.19167 4.55871,4.67949 0.91361,0.28485 1.43882,0.26258 2.26951,-0.0963 1.31272,-0.56706 2.47895,-1.86828 3.45853,-3.85888 0.25741,-0.52307 0.50167,-0.9513 0.54279,-0.95161 0.0411,-2.6e-4 0.18174,0.24995 0.3125,0.55613 0.13075,0.30618 0.50668,0.9901 0.8354,1.51982 2.31928,3.7374 5.05706,3.99716 7.93096,0.75247 1.43162,-1.61632 2.50888,-3.76322 3.06603,-6.11038 0.37259,-1.56965 0.36769,-4.22885 -0.0105,-5.68713 -0.53475,-2.06206 -1.44221,-3.80702 -2.95918,-5.69021 -2.53437,-3.14623 -3.47039,-4.672388 -4.43152,-7.225494 -1.27007,-3.373792 -1.936,-8.135595 -1.67537,-11.979802 l 0.11124,-1.6407 0.22939,0.721908 c 0.42107,1.325135 1.79216,4.117003 2.80401,5.709635 1.93776,3.049995 4.4818,6.066649 7.48644,8.877231 4.56274,4.268032 7.60245,9.707472 8.55532,15.309352 0.37208,2.18747 0.37131,5.3525 -0.002,7.21427 -0.34933,1.74329 -0.74783,2.89649 -1.65976,4.80301 -2.65238,5.54521 -5.64195,9.014 -8.91492,10.34394 -2.22494,0.90409 -2.56707,0.93873 -9.56558,0.96856 -3.47188,0.0148 -6.59375,0.005 -6.9375,-0.0217 z"
       id="path43687" />
    <path
       style="fill:url(#linearGradient43372);fill-opacity:1;stroke:url(#linearGradient43374);stroke-width:0.711407;stroke-miterlimit:4;stroke-dasharray:none;stroke-opacity:1"
       d="m 232.49073,93.46122 c -1.63223,-0.93865 -3.18319,-2.603393 -5.03537,-5.404761 -2.15003,-3.251852 -3.47101,-6.153121 -4.03874,-8.870247 -0.58871,-2.817539 -0.43086,-6.350813 0.4237,-9.48388 1.19099,-4.36653 4.06437,-8.939175 7.70488,-12.261411 1.41453,-1.290873 4.01599,-4.000525 5.18366,-5.399266 2.6555,-3.180976 4.63043,-6.562148 5.62142,-9.624133 l 0.39009,-1.20529 0.11252,1.209293 c 0.14243,1.530635 0.0665,6.014224 -0.12423,7.337824 -0.55488,3.850151 -2.01891,7.678758 -3.75278,9.813919 -0.22426,0.27616 -0.94627,1.11833 -1.60447,1.871492 -2.06065,2.357943 -3.18949,4.059379 -4.51238,6.801275 -1.48206,3.071807 -2.4017,6.268855 -2.78362,9.676982 -0.22142,1.975954 -0.14251,5.210388 0.17261,7.0744 0.45728,2.70498 1.06982,4.710537 2.22867,7.297123 0.35821,0.79952 0.64016,1.46516 0.62657,1.47919 -0.0136,0.014 -0.28923,-0.12659 -0.61253,-0.31251 z"
       id="path43689" />
    <path
       style="fill:url(#linearGradient61236);fill-opacity:1;stroke:url(#linearGradient61238);stroke-width:0.711407;stroke-miterlimit:4;stroke-dasharray:none;stroke-opacity:1"
       d="m 170.36818,105.84541 c -1.63223,-0.93865 -3.18319,-2.60339 -5.03537,-5.40476 -2.15003,-3.25185 -3.47101,-6.15312 -4.03874,-8.87025 -0.58871,-2.81754 -0.43086,-6.350812 0.4237,-9.483879 1.19099,-4.36653 4.06437,-8.939175 7.70488,-12.261411 1.41453,-1.290873 4.01599,-4.000525 5.18366,-5.399266 2.6555,-3.180976 4.63043,-6.562148 5.62142,-9.624133 l 0.39009,-1.20529 0.11252,1.209293 c 0.14243,1.530635 0.0665,6.014224 -0.12423,7.337824 -0.55488,3.850151 -2.01891,7.678758 -3.75278,9.813919 -0.22426,0.27616 -0.94627,1.11833 -1.60447,1.871492 -2.06065,2.357943 -3.18949,4.059379 -4.51238,6.801275 -1.48206,3.071807 -2.4017,6.268855 -2.78362,9.676986 -0.22142,1.97595 -0.14251,5.21038 0.17261,7.0744 0.45728,2.70498 1.06982,4.71053 2.22867,7.29712 0.35821,0.79952 0.64016,1.46516 0.62657,1.47919 -0.0136,0.014 -0.28923,-0.12659 -0.61253,-0.31251 z"
       id="path43689-7" />
    <path
       style="opacity:0.296417;fill:none;fill-opacity:1;stroke:#000000;stroke-width:0.0875;stroke-miterlimit:4;stroke-dasharray:none;stroke-opacity:0"
       d="m 194.5,110.30477 c -2.01973,-0.16392 -2.09974,-0.19686 -2.82932,-1.16491 -1.23004,-1.63209 -2.19267,-3.98926 -2.60952,-6.38986 -0.28155,-1.62144 -0.28756,-4.626487 -0.0131,-6.569797 0.32003,-2.266353 1.22508,-5.664486 1.99459,-7.488959 l 0.18295,-0.433757 0.14056,0.558757 c 1.44831,5.757301 4.05589,9.126666 7.84633,10.138557 1.84245,0.491859 4.31642,0.311894 6.46275,-0.470123 0.48802,-0.177812 1.03136,-0.339203 1.20741,-0.358647 0.8042,-0.08882 2.65098,-1.330641 3.72262,-2.503182 1.846,-2.019822 2.96083,-4.574788 3.27684,-7.509839 0.42632,-3.959658 -0.94738,-7.982247 -4.00849,-11.73801 -3.12869,-3.838683 -4.85332,-8.769223 -5.0719,-14.5 l -0.0715,-1.875 0.52189,0.9375 c 1.83484,3.296003 4.52748,6.766796 8.88039,11.44674 2.36527,2.542982 3.35468,3.712106 4.48803,5.30326 3.40679,4.782916 5.06083,9.840774 4.62328,14.137499 -0.36986,3.631964 -2.523,9.274761 -4.88414,12.800001 -1.93679,2.89166 -3.78091,4.48707 -6.09756,5.27519 -0.90546,0.30804 -1.12657,0.32763 -4.76205,0.42203 -4.6792,0.1215 -11.39899,0.11248 -13,-0.0174 z"
       id="path49559" />
    <path
       style="opacity:0.296417;fill:none;fill-opacity:1;stroke:#000000;stroke-width:0.0875;stroke-miterlimit:4;stroke-dasharray:none;stroke-opacity:0"
       d="m 194.5,110.30477 c -2.01973,-0.16392 -2.09974,-0.19686 -2.82932,-1.16491 -1.23004,-1.63209 -2.19267,-3.98926 -2.60952,-6.38986 -0.28155,-1.62144 -0.28756,-4.626487 -0.0131,-6.569797 0.32003,-2.266353 1.22508,-5.664486 1.99459,-7.488959 l 0.18295,-0.433757 0.14056,0.558757 c 1.44831,5.757301 4.05589,9.126666 7.84633,10.138557 1.84245,0.491859 4.31642,0.311894 6.46275,-0.470123 0.48802,-0.177812 1.03136,-0.339203 1.20741,-0.358647 0.8042,-0.08882 2.65098,-1.330641 3.72262,-2.503182 1.846,-2.019822 2.96083,-4.574788 3.27684,-7.509839 0.42632,-3.959658 -0.94738,-7.982247 -4.00849,-11.73801 -3.12869,-3.838683 -4.85332,-8.769223 -5.0719,-14.5 l -0.0715,-1.875 0.52189,0.9375 c 1.83484,3.296003 4.52748,6.766796 8.88039,11.44674 2.36527,2.542982 3.35468,3.712106 4.48803,5.30326 3.40679,4.782916 5.06083,9.840774 4.62328,14.137499 -0.36986,3.631964 -2.523,9.274761 -4.88414,12.800001 -1.93679,2.89166 -3.78091,4.48707 -6.09756,5.27519 -0.90546,0.30804 -1.12657,0.32763 -4.76205,0.42203 -4.6792,0.1215 -11.39899,0.11248 -13,-0.0174 z"
       id="path49598" />
    <path
       style="opacity:0.296417;fill:none;fill-opacity:1;stroke:#000000;stroke-width:0.0875;stroke-miterlimit:4;stroke-dasharray:none;stroke-opacity:0"
       d="m 194.5,110.30477 c -2.01973,-0.16392 -2.09974,-0.19686 -2.82932,-1.16491 -1.23004,-1.63209 -2.19267,-3.98926 -2.60952,-6.38986 -0.28155,-1.62144 -0.28756,-4.626487 -0.0131,-6.569797 0.32003,-2.266353 1.22508,-5.664486 1.99459,-7.488959 l 0.18295,-0.433757 0.14056,0.558757 c 1.44831,5.757301 4.05589,9.126666 7.84633,10.138557 1.84245,0.491859 4.31642,0.311894 6.46275,-0.470123 0.48802,-0.177812 1.03136,-0.339203 1.20741,-0.358647 0.8042,-0.08882 2.65098,-1.330641 3.72262,-2.503182 1.846,-2.019822 2.96083,-4.574788 3.27684,-7.509839 0.42632,-3.959658 -0.94738,-7.982247 -4.00849,-11.73801 -3.12869,-3.838683 -4.85332,-8.769223 -5.0719,-14.5 l -0.0715,-1.875 0.52189,0.9375 c 1.83484,3.296003 4.52748,6.766796 8.88039,11.44674 2.36527,2.542982 3.35468,3.712106 4.48803,5.30326 3.40679,4.782916 5.06083,9.840774 4.62328,14.137499 -0.36986,3.631964 -2.523,9.274761 -4.88414,12.800001 -1.93679,2.89166 -3.78091,4.48707 -6.09756,5.27519 -0.90546,0.30804 -1.12657,0.32763 -4.76205,0.42203 -4.6792,0.1215 -11.39899,0.11248 -13,-0.0174 z"
       id="path49637" />
    <path
       style="opacity:0.296417;fill:none;fill-opacity:1;stroke:#000000;stroke-width:0.0875;stroke-miterlimit:4;stroke-dasharray:none;stroke-opacity:0"
       d="m 194.5,110.30477 c -2.01973,-0.16392 -2.09974,-0.19686 -2.82932,-1.16491 -1.23004,-1.63209 -2.19267,-3.98926 -2.60952,-6.38986 -0.28155,-1.62144 -0.28756,-4.626487 -0.0131,-6.569797 0.32003,-2.266353 1.22508,-5.664486 1.99459,-7.488959 l 0.18295,-0.433757 0.14056,0.558757 c 1.44831,5.757301 4.05589,9.126666 7.84633,10.138557 1.84245,0.491859 4.31642,0.311894 6.46275,-0.470123 0.48802,-0.177812 1.03136,-0.339203 1.20741,-0.358647 0.8042,-0.08882 2.65098,-1.330641 3.72262,-2.503182 1.846,-2.019822 2.96083,-4.574788 3.27684,-7.509839 0.42632,-3.959658 -0.94738,-7.982247 -4.00849,-11.73801 -3.12869,-3.838683 -4.85332,-8.769223 -5.0719,-14.5 l -0.0715,-1.875 0.52189,0.9375 c 1.83484,3.296003 4.52748,6.766796 8.88039,11.44674 2.36527,2.542982 3.35468,3.712106 4.48803,5.30326 3.40679,4.782916 5.06083,9.840774 4.62328,14.137499 -0.36986,3.631964 -2.523,9.274761 -4.88414,12.800001 -1.93679,2.89166 -3.78091,4.48707 -6.09756,5.27519 -0.90546,0.30804 -1.12657,0.32763 -4.76205,0.42203 -4.6792,0.1215 -11.39899,0.11248 -13,-0.0174 z"
       id="path49676" />
    <path
       style="opacity:0.296417;fill:none;fill-opacity:1;stroke:#000000;stroke-width:0.0875;stroke-miterlimit:4;stroke-dasharray:none;stroke-opacity:0"
       d="m 194.5,110.30477 c -2.01973,-0.16392 -2.09974,-0.19686 -2.82932,-1.16491 -1.23004,-1.63209 -2.19267,-3.98926 -2.60952,-6.38986 -0.28155,-1.62144 -0.28756,-4.626487 -0.0131,-6.569797 0.32003,-2.266353 1.22508,-5.664486 1.99459,-7.488959 l 0.18295,-0.433757 0.14056,0.558757 c 1.44831,5.757301 4.05589,9.126666 7.84633,10.138557 1.84245,0.491859 4.31642,0.311894 6.46275,-0.470123 0.48802,-0.177812 1.03136,-0.339203 1.20741,-0.358647 0.8042,-0.08882 2.65098,-1.330641 3.72262,-2.503182 1.846,-2.019822 2.96083,-4.574788 3.27684,-7.509839 0.42632,-3.959658 -0.94738,-7.982247 -4.00849,-11.73801 -3.12869,-3.838683 -4.85332,-8.769223 -5.0719,-14.5 l -0.0715,-1.875 0.52189,0.9375 c 1.83484,3.296003 4.52748,6.766796 8.88039,11.44674 2.36527,2.542982 3.35468,3.712106 4.48803,5.30326 3.40679,4.782916 5.06083,9.840774 4.62328,14.137499 -0.36986,3.631964 -2.523,9.274761 -4.88414,12.800001 -1.93679,2.89166 -3.78091,4.48707 -6.09756,5.27519 -0.90546,0.30804 -1.12657,0.32763 -4.76205,0.42203 -4.6792,0.1215 -11.39899,0.11248 -13,-0.0174 z"
       id="path49715" />
    <path
       style="opacity:0.296417;fill:none;fill-opacity:1;stroke:#000000;stroke-width:0.0875;stroke-miterlimit:4;stroke-dasharray:none;stroke-opacity:0"
       d="m 194.5,110.30477 c -2.01973,-0.16392 -2.09974,-0.19686 -2.82932,-1.16491 -1.23004,-1.63209 -2.19267,-3.98926 -2.60952,-6.38986 -0.28155,-1.62144 -0.28756,-4.626487 -0.0131,-6.569797 0.32003,-2.266353 1.22508,-5.664486 1.99459,-7.488959 l 0.18295,-0.433757 0.14056,0.558757 c 1.44831,5.757301 4.05589,9.126666 7.84633,10.138557 1.84245,0.491859 4.31642,0.311894 6.46275,-0.470123 0.48802,-0.177812 1.03136,-0.339203 1.20741,-0.358647 0.8042,-0.08882 2.65098,-1.330641 3.72262,-2.503182 1.846,-2.019822 2.96083,-4.574788 3.27684,-7.509839 0.42632,-3.959658 -0.94738,-7.982247 -4.00849,-11.73801 -3.12869,-3.838683 -4.85332,-8.769223 -5.0719,-14.5 l -0.0715,-1.875 0.52189,0.9375 c 1.83484,3.296003 4.52748,6.766796 8.88039,11.44674 2.36527,2.542982 3.35468,3.712106 4.48803,5.30326 3.40679,4.782916 5.06083,9.840774 4.62328,14.137499 -0.36986,3.631964 -2.523,9.274761 -4.88414,12.800001 -1.93679,2.89166 -3.78091,4.48707 -6.09756,5.27519 -0.90546,0.30804 -1.12657,0.32763 -4.76205,0.42203 -4.6792,0.1215 -11.39899,0.11248 -13,-0.0174 z"
       id="path49754" />
    <path
       style="opacity:0.296417;fill:none;fill-opacity:1;stroke:#000000;stroke-width:0.0875;stroke-miterlimit:4;stroke-dasharray:none;stroke-opacity:0"
       d="m 194.5,110.30477 c -2.01973,-0.16392 -2.09974,-0.19686 -2.82932,-1.16491 -1.23004,-1.63209 -2.19267,-3.98926 -2.60952,-6.38986 -0.28155,-1.62144 -0.28756,-4.626487 -0.0131,-6.569797 0.32003,-2.266353 1.22508,-5.664486 1.99459,-7.488959 l 0.18295,-0.433757 0.14056,0.558757 c 1.44831,5.757301 4.05589,9.126666 7.84633,10.138557 1.84245,0.491859 4.31642,0.311894 6.46275,-0.470123 0.48802,-0.177812 1.03136,-0.339203 1.20741,-0.358647 0.8042,-0.08882 2.65098,-1.330641 3.72262,-2.503182 1.846,-2.019822 2.96083,-4.574788 3.27684,-7.509839 0.42632,-3.959658 -0.94738,-7.982247 -4.00849,-11.73801 -3.12869,-3.838683 -4.85332,-8.769223 -5.0719,-14.5 l -0.0715,-1.875 0.52189,0.9375 c 1.83484,3.296003 4.52748,6.766796 8.88039,11.44674 2.36527,2.542982 3.35468,3.712106 4.48803,5.30326 3.40679,4.782916 5.06083,9.840774 4.62328,14.137499 -0.36986,3.631964 -2.523,9.274761 -4.88414,12.800001 -1.93679,2.89166 -3.78091,4.48707 -6.09756,5.27519 -0.90546,0.30804 -1.12657,0.32763 -4.76205,0.42203 -4.6792,0.1215 -11.39899,0.11248 -13,-0.0174 z"
       id="path49793" />
    <path
       style="opacity:0.296417;fill:none;fill-opacity:1;stroke:#000000;stroke-width:0.0875;stroke-miterlimit:4;stroke-dasharray:none;stroke-opacity:0"
       d="m 194.5,110.30477 c -2.01973,-0.16392 -2.09974,-0.19686 -2.82932,-1.16491 -1.23004,-1.63209 -2.19267,-3.98926 -2.60952,-6.38986 -0.28155,-1.62144 -0.28756,-4.626487 -0.0131,-6.569797 0.32003,-2.266353 1.22508,-5.664486 1.99459,-7.488959 l 0.18295,-0.433757 0.14056,0.558757 c 1.44831,5.757301 4.05589,9.126666 7.84633,10.138557 1.84245,0.491859 4.31642,0.311894 6.46275,-0.470123 0.48802,-0.177812 1.03136,-0.339203 1.20741,-0.358647 0.8042,-0.08882 2.65098,-1.330641 3.72262,-2.503182 1.846,-2.019822 2.96083,-4.574788 3.27684,-7.509839 0.42632,-3.959658 -0.94738,-7.982247 -4.00849,-11.73801 -3.12869,-3.838683 -4.85332,-8.769223 -5.0719,-14.5 l -0.0715,-1.875 0.52189,0.9375 c 1.83484,3.296003 4.52748,6.766796 8.88039,11.44674 2.36527,2.542982 3.35468,3.712106 4.48803,5.30326 3.40679,4.782916 5.06083,9.840774 4.62328,14.137499 -0.36986,3.631964 -2.523,9.274761 -4.88414,12.800001 -1.93679,2.89166 -3.78091,4.48707 -6.09756,5.27519 -0.90546,0.30804 -1.12657,0.32763 -4.76205,0.42203 -4.6792,0.1215 -11.39899,0.11248 -13,-0.0174 z"
       id="path49832" />
    <path
       style="opacity:0.296417;fill:none;fill-opacity:1;stroke:#000000;stroke-width:0.0875;stroke-miterlimit:4;stroke-dasharray:none;stroke-opacity:0"
       d="m 194.5,110.30477 c -2.01973,-0.16392 -2.09974,-0.19686 -2.82932,-1.16491 -1.23004,-1.63209 -2.19267,-3.98926 -2.60952,-6.38986 -0.28155,-1.62144 -0.28756,-4.626487 -0.0131,-6.569797 0.32003,-2.266353 1.22508,-5.664486 1.99459,-7.488959 l 0.18295,-0.433757 0.14056,0.558757 c 1.44831,5.757301 4.05589,9.126666 7.84633,10.138557 1.84245,0.491859 4.31642,0.311894 6.46275,-0.470123 0.48802,-0.177812 1.03136,-0.339203 1.20741,-0.358647 0.8042,-0.08882 2.65098,-1.330641 3.72262,-2.503182 1.846,-2.019822 2.96083,-4.574788 3.27684,-7.509839 0.42632,-3.959658 -0.94738,-7.982247 -4.00849,-11.73801 -3.12869,-3.838683 -4.85332,-8.769223 -5.0719,-14.5 l -0.0715,-1.875 0.52189,0.9375 c 1.83484,3.296003 4.52748,6.766796 8.88039,11.44674 2.36527,2.542982 3.35468,3.712106 4.48803,5.30326 3.40679,4.782916 5.06083,9.840774 4.62328,14.137499 -0.36986,3.631964 -2.523,9.274761 -4.88414,12.800001 -1.93679,2.89166 -3.78091,4.48707 -6.09756,5.27519 -0.90546,0.30804 -1.12657,0.32763 -4.76205,0.42203 -4.6792,0.1215 -11.39899,0.11248 -13,-0.0174 z"
       id="path49871" />
    <path
       style="opacity:1;fill:#000f2b;fill-opacity:1;stroke:url(#linearGradient59969);stroke-width:0.7;stroke-miterlimit:4;stroke-dasharray:none;stroke-opacity:1"
       d="m 176.88352,107.07854 c -2.01973,-0.16392 -2.09974,-0.19686 -2.82932,-1.16491 -1.23004,-1.63209 -2.19267,-3.98925 -2.60952,-6.389847 -0.28155,-1.621437 -0.28756,-4.62648 -0.0131,-6.569787 0.32003,-2.266349 1.22508,-5.664477 1.99459,-7.488945 l 0.18295,-0.433756 0.14056,0.558753 c 1.44831,5.757293 4.05589,9.126653 7.84633,10.138542 1.84245,0.491858 5.05055,-0.05065 6.46275,-0.470122 1.20741,-0.358647 1.20741,-0.358647 1.20741,-0.358647 1.79321,-0.97386 2.65098,-1.330639 3.72262,-2.503178 1.846,-2.019819 2.96083,-4.574781 3.27684,-7.509825 0.42632,-3.959652 -0.94738,-7.982235 -4.00849,-11.737992 -3.12869,-3.838678 -4.85332,-8.76921 -5.0719,-14.499979 l -0.0715,-1.874997 0.52189,0.937499 c 1.83484,3.295998 4.52748,6.766786 8.88039,11.446723 2.36527,2.542978 3.35468,3.7121 4.48803,5.303252 3.40679,4.782909 5.06083,9.840759 4.62328,14.137475 -0.36986,3.631958 -2.523,9.274747 -4.88414,12.799981 -1.93679,2.89165 -3.78091,4.48706 -6.09756,5.27518 -0.90546,0.30804 -1.12657,0.32763 -4.76205,0.42203 -4.6792,0.1215 -11.39899,0.11248 -13,-0.0174 z"
       id="path59450"
       sodipodi:nodetypes="ssscscsssssssscsssssssss" />
  </g>
  <g
     inkscape:groupmode="layer"
     id="layer2"
     inkscape:label="Or" />
</svg>
